<svg width="252" height="82" viewBox="0 0 219 62" version="1.1" xmlns="http://www.w3.org/2000/svg" xmlns:xlink="http://www.w3.org/1999/xlink">
<g id="Canvas" fill="none">
<g id="AppStore">
<g id="Group">
<g id="Vector">
<path d="M 218.204 55.6208C 218.204 59.0261 215.448 61.8639 211.888 61.8639L 6.31644 61.8639C 2.87111 61.8639 0 59.1396 0 55.6208L 0 6.24315C 0 2.8378 2.87111 0 6.31644 0L 211.888 0C 215.333 0 218.204 2.8378 218.204 6.24315L 218.204 55.6208Z" transform="translate(0.795776 0.136047)" fill="black"/>
</g>
<g id="Vector_2">
<path d="M 28.4984 11.9535C 28.4984 6.732 32.8625 4.23475 32.9774 4.12123C 30.4508 0.602368 26.6609 0.0348086 25.2828 0.0348086C 22.0672 -0.305727 18.9664 1.96451 17.2437 1.96451C 15.521 1.96451 12.9945 0.0348091 10.353 0.148321C 6.79286 0.148321 3.57722 2.19153 1.73971 5.36986C -1.93531 11.7265 0.820952 21.0345 4.38113 26.1425C 6.10379 28.6398 8.28584 31.4776 10.9273 31.3641C 13.5687 31.2505 14.6023 29.6614 17.8179 29.6614C 21.0336 29.6614 21.9523 31.3641 24.7086 31.2505C 27.5797 31.2505 29.4172 28.7533 31.025 26.1425C 33.0922 23.3047 33.8961 20.4669 33.8961 20.2399C 34.011 20.2399 28.6133 18.1967 28.4984 11.9535Z" transform="translate(20.1877 18.8305)" fill="white"/>
</g>
<g id="Vector_3">
<path d="M 6.25913 6.58369C 7.63726 4.7675 8.67085 2.38375 8.44117 -1.08253e-07C 6.37397 0.113512 3.73255 1.36214 2.23957 3.17833C 0.976283 4.65398 -0.287007 7.15124 0.0575265 9.53499C 2.35441 9.6485 4.76615 8.39987 6.25913 6.58369Z" transform="translate(37.2588 8.76282)" fill="white"/>
</g>
<g id="Vector_4">
<path d="M 18.6048 21.5672L 14.8149 21.5672L 12.7477 15.2106L 5.62737 15.2106L 3.67502 21.5672L -1.75239e-06 21.5672L 7.0055 8.66026e-07L 11.3696 8.66026e-07L 18.6048 21.5672ZM 12.1735 12.5998L 10.336 6.92422C 10.1063 6.35666 9.76177 4.99452 9.18755 2.8378L 9.0727 2.8378C 8.84302 3.74589 8.49848 5.10803 8.0391 6.92422L 6.2016 12.5998L 12.1735 12.5998Z" transform="translate(68.6689 28.1734)" fill="white"/>
</g>
<g id="Vector_5">
<path d="M 15.0446 7.94583C 15.0446 10.5566 14.3555 12.7133 12.8626 14.189C 11.5993 15.5511 9.99146 16.2322 8.03911 16.2322C 5.97191 16.2322 4.47893 15.5511 3.56017 14.0755L 3.56017 22.2483L 0.114844 22.2483L 0.114844 5.44857C 0.114844 3.74589 0.114846 2.04321 1.75239e-06 0.340535L 3.1008 0.340535L 3.33049 2.8378L 3.44533 2.8378C 4.59378 1.02161 6.43128 8.66026e-07 8.72817 8.66026e-07C 10.5657 8.66026e-07 12.1735 0.681071 13.3219 2.15672C 14.3555 3.63238 15.0446 5.56208 15.0446 7.94583ZM 11.4844 8.05934C 11.4844 6.58368 11.1399 5.33505 10.4508 4.31345C 9.64693 3.29184 8.72817 2.72428 7.46488 2.72428C 6.54613 2.72428 5.85706 3.06482 5.168 3.51886C 4.47893 4.08642 4.01955 4.88101 3.78986 5.7891C 3.56017 6.24315 3.56017 6.58368 3.56017 6.92422L 3.56017 9.42148C 3.56017 10.5566 3.90471 11.4647 4.59378 12.2593C 5.28284 13.0539 6.2016 13.3944 7.35004 13.3944C 8.61333 13.3944 9.64693 12.9403 10.4508 11.9187C 11.1399 11.0106 11.4844 9.6485 11.4844 8.05934Z" transform="translate(90.2595 33.8489)" fill="white"/>
</g>
<g id="Vector_6">
<path d="M 15.1595 7.94583C 15.1595 10.5566 14.4704 12.7133 12.9774 14.189C 11.7141 15.5511 10.1063 16.2322 8.15395 16.2322C 6.08675 16.2322 4.59377 15.5511 3.67502 14.0755L 3.56017 14.0755L 3.56017 22.2483L 0.114843 22.2483L 0.114843 5.44857C 0.114843 3.74589 0.114844 2.04321 0 0.340535L 3.10079 0.340535L 3.33049 2.8378L 3.44533 2.8378C 4.59377 1.02161 6.43128 8.66026e-07 8.72817 8.66026e-07C 10.5657 8.66026e-07 12.1735 0.681071 13.3219 2.15672C 14.5852 3.63238 15.1595 5.56208 15.1595 7.94583ZM 11.5993 8.05934C 11.5993 6.58368 11.2547 5.33505 10.5657 4.31345C 9.76177 3.29184 8.84301 2.72428 7.57973 2.72428C 6.66097 2.72428 5.97191 3.06482 5.28284 3.51886C 4.59377 4.08642 4.1344 4.88101 3.90471 5.7891C 3.78987 6.24315 3.78987 6.58368 3.78987 6.81071L 3.78987 9.42148C 3.78987 10.5566 4.13439 11.4647 4.82346 12.2593C 5.51253 13.0539 6.43128 13.3944 7.57973 13.3944C 8.84301 13.3944 9.87662 12.9403 10.6805 11.9187C 11.2548 11.0106 11.5993 9.6485 11.5993 8.05934Z" transform="translate(108.176 33.8489)" fill="white"/>
</g>
<g id="Vector_7">
<path d="M 13.5516 15.7781C 13.5516 17.5943 12.8626 19.07 11.5993 20.2051C 10.2211 21.4537 8.15395 22.1348 5.62738 22.1348C 3.33049 22.1348 1.37813 21.6807 0 20.7727L 0.803907 17.9349C 2.29688 18.843 4.01955 19.297 5.85706 19.297C 7.12035 19.297 8.15395 18.9565 8.95786 18.3889C 9.64693 17.8214 10.1063 17.0268 10.1063 16.0052C 10.1063 15.0971 9.76177 14.416 9.18755 13.8484C 8.61333 13.2809 7.57973 12.7133 6.2016 12.1458C 2.41173 10.7836 0.459379 8.62689 0.459379 6.01612C 0.459379 4.19993 1.14844 2.83779 2.41173 1.70268C 3.78986 0.567559 5.51253 0 7.69457 0C 9.64692 0 11.3696 0.340535 12.6329 1.02161L 11.7141 3.8594C 10.4508 3.17833 9.0727 2.83779 7.57973 2.83779C 6.31644 2.83779 5.39768 3.17833 4.70862 3.74589C 4.1344 4.31345 3.78987 4.88101 3.78987 5.67559C 3.78987 6.58368 4.13439 7.26475 4.82346 7.83231C 5.39768 8.39987 6.43128 8.85392 8.03911 9.53499C 9.87662 10.3296 11.2547 11.1242 12.1735 12.1458C 13.2071 12.9403 13.5516 14.189 13.5516 15.7781Z" transform="translate(129.995 27.9463)" fill="white"/>
</g>
<g id="Vector_8">
<path d="M 9.53208 6.47017L 5.62737 6.47017L 5.62737 13.962C 5.62737 15.8917 6.31644 16.7997 7.69458 16.7997C 8.2688 16.7997 8.84301 16.7997 9.30239 16.6862L 9.41724 19.297C 8.72818 19.524 7.80941 19.6375 6.66097 19.6375C 5.28283 19.6375 4.24925 19.1835 3.44534 18.3889C 2.64143 17.5943 2.29689 16.1187 2.29689 14.189L 2.29689 6.35666L -1.75239e-06 6.35666L -1.75239e-06 3.8594L 2.29689 3.8594L 2.29689 1.02161L 5.74223 4.33013e-07L 5.74223 3.8594L 9.64693 3.8594L 9.64693 6.47017L 9.53208 6.47017Z" transform="translate(145.614 30.33)" fill="white"/>
</g>
<g id="Vector_9">
<path d="M 15.3891 7.83231C 15.3891 10.2161 14.7001 12.1458 13.3219 13.7349C 11.829 15.3241 9.99146 16.1187 7.57972 16.1187C 5.28284 16.1187 3.44532 15.3241 2.06719 13.8484C 0.689059 12.3728 7.00954e-06 10.4431 7.00954e-06 8.17285C 7.00954e-06 5.7891 0.689059 3.74589 2.06719 2.27024C 3.44532 0.68107 5.39768 -8.66026e-07 7.80941 -8.66026e-07C 10.1063 -8.66026e-07 11.9438 0.794582 13.3219 2.27024C 14.7001 3.63238 15.3891 5.56208 15.3891 7.83231ZM 11.829 7.94582C 11.829 6.47017 11.4844 5.33505 10.9102 4.31345C 10.2212 3.06482 9.18754 2.49726 7.80941 2.49726C 6.43128 2.49726 5.28285 3.06482 4.59378 4.31345C 4.01956 5.33505 3.67502 6.58369 3.67502 8.05934C 3.67502 9.53499 4.01956 10.6701 4.59378 11.6917C 5.39769 12.9403 6.43128 13.5079 7.80941 13.5079C 9.18754 13.5079 10.2212 12.8268 10.9102 11.5782C 11.4844 10.6701 11.829 9.42148 11.829 7.94582Z" transform="translate(157.099 33.9624)" fill="white"/>
</g>
<g id="Vector_10">
<path d="M 8.49848 3.40535C 8.15394 3.29184 7.80941 3.29184 7.35003 3.29184C 6.08674 3.29184 5.16799 3.74589 4.47892 4.65398C 3.9047 5.44857 3.56018 6.47017 3.56018 7.7188L 3.56018 15.8917L 0.114851 15.8917L 0.114851 5.22154C 0.114851 3.40535 0.114844 1.81619 0 0.340535L 2.98596 0.340535L 3.10079 3.29184L 3.21565 3.29184C 3.56018 2.27023 4.1344 1.47565 4.93831 0.794582C 5.74222 0.227023 6.54613 8.66026e-07 7.46488 8.66026e-07C 7.80942 8.66026e-07 8.03911 -8.71101e-07 8.38364 0.113511L 8.38364 3.40535L 8.49848 3.40535Z" transform="translate(175.359 33.8489)" fill="white"/>
</g>
<g id="Vector_11">
<path d="M 13.8962 7.37827C 13.8962 7.94583 13.8962 8.51338 13.7813 8.96743L 3.33049 8.96743C 3.33049 10.5566 3.90472 11.6917 4.82347 12.4863C 5.74223 13.1674 6.89067 13.6214 8.2688 13.6214C 9.87662 13.6214 11.2548 13.3944 12.518 12.9403L 13.0923 15.3241C 11.5993 16.0052 9.87661 16.2322 7.80941 16.2322C 5.39768 16.2322 3.44533 15.5511 2.0672 14.0755C 0.689063 12.7133 -7.00954e-06 10.7836 -7.00954e-06 8.39987C -7.00954e-06 6.01612 0.689073 4.08642 1.95236 2.49726C 3.33049 0.794582 5.16799 8.66026e-07 7.46488 8.66026e-07C 9.76176 8.66026e-07 11.4844 0.794582 12.6329 2.49726C 13.4368 3.74589 13.8962 5.44857 13.8962 7.37827ZM 10.5657 6.47017C 10.5657 5.44857 10.336 4.54047 9.87662 3.8594C 9.30239 2.9513 8.38365 2.38375 7.12036 2.38375C 5.97191 2.38375 5.05315 2.83779 4.36408 3.74589C 3.78986 4.54047 3.44533 5.33506 3.33049 6.47017L 10.5657 6.47017Z" transform="translate(185.58 33.8489)" fill="white"/>
</g>
<g id="Vector_12">
<path d="M 0.22969 0.794583C 0.574223 0.567559 1.0336 0.340536 1.49298 0.227024C 1.95235 0.113512 2.52658 -4.33013e-07 3.1008 -4.33013e-07C 4.1344 -4.33013e-07 4.93831 0.227024 5.51253 0.681071C 6.08676 1.13512 6.43128 1.81619 6.43128 2.61077C 6.43128 3.29184 6.20159 3.8594 5.85706 4.19994C 5.51253 4.65398 4.93831 4.88101 4.36409 5.10803C 4.70862 5.10803 5.05315 5.22154 5.28284 5.33505C 5.62737 5.44857 5.85707 5.67559 6.08676 5.90261C 6.31644 6.12964 6.54613 6.35666 6.66098 6.6972C 6.77582 7.03773 6.89066 7.26475 6.89066 7.7188C 6.89066 8.28636 6.77581 8.74041 6.54613 9.19446C 6.31644 9.6485 5.97191 9.87553 5.62738 10.2161C 5.28284 10.4431 4.82347 10.6701 4.36409 10.7836C 3.78987 10.8971 3.33049 10.8971 2.87111 10.8971C 2.41173 10.8971 1.83751 10.8971 1.37813 10.7836C 0.918756 10.6701 0.459377 10.5566 0 10.2161L 0.459379 8.96743C 0.689068 9.08094 1.0336 9.19446 1.49298 9.30797C 1.95235 9.42148 2.41173 9.53499 2.75627 9.53499C 3.44533 9.53499 4.01955 9.42148 4.47893 9.08094C 4.82347 8.74041 5.05315 8.28636 5.05315 7.7188C 5.05315 7.37827 4.9383 7.03773 4.82346 6.81071C 4.70862 6.58368 4.47893 6.35666 4.24924 6.24315C 4.01955 6.12964 3.67502 6.01612 3.44533 6.01612C 3.1008 6.01612 2.87111 5.90261 2.52658 5.90261L 1.72267 5.90261L 1.72267 4.65398L 2.41173 4.65398C 2.75626 4.65398 3.1008 4.65398 3.33049 4.54047C 3.56018 4.42696 3.90471 4.31345 4.01955 4.19994C 4.24924 4.08642 4.36409 3.8594 4.47893 3.63238C 4.59378 3.40535 4.70862 3.17833 4.70862 2.95131C 4.70862 2.49726 4.59377 2.15672 4.24924 1.81619C 3.90471 1.58917 3.44533 1.36214 2.87111 1.36214C 2.52658 1.36214 2.0672 1.47565 1.72267 1.58917C 1.37813 1.70268 1.0336 1.81619 0.689064 2.04321L 0.22969 0.794583Z" transform="translate(70.2766 9.67091)" fill="white"/>
</g>
<g id="Vector_13">
<path d="M 4.70862 7.83231L 4.59377 6.92422C 4.01955 7.60529 3.33049 7.94583 2.29689 7.94583C 1.95235 7.94583 1.60782 7.83231 1.37813 7.7188C 1.14844 7.60529 0.803909 7.49178 0.689065 7.26476C 0.459376 7.03773 0.34453 6.81071 0.229685 6.58368C 0.114841 6.35666 0 6.01613 0 5.67559C 0 4.7675 0.344533 3.97291 1.14844 3.51887C 1.95235 3.06482 3.1008 2.8378 4.47893 2.8378L 4.47893 2.72428C 4.47893 1.70268 3.90471 1.24863 2.87111 1.24863C 2.0672 1.24863 1.49297 1.47565 0.803907 1.81619L 0.459379 0.681071C 1.14845 0.227024 2.0672 0 3.10079 0C 5.16799 0 6.08676 1.02161 6.08676 3.17833L 6.08676 6.01612C 6.08676 6.81071 6.08675 7.37827 6.2016 7.83231L 4.70862 7.83231ZM 4.47893 3.97291C 3.56018 3.97291 2.75626 4.08643 2.29689 4.31345C 1.83751 4.54047 1.60782 4.99452 1.60782 5.44857C 1.60782 5.90261 1.72266 6.12964 1.95235 6.35666C 2.18204 6.58369 2.41173 6.6972 2.75627 6.6972C 2.98596 6.6972 3.21564 6.6972 3.33049 6.58368C 3.56018 6.47017 3.67502 6.35666 3.90471 6.24315L 4.24924 5.7891C 4.36408 5.56208 4.36409 5.33506 4.36409 5.22154L 4.36409 3.97291L 4.47893 3.97291Z" transform="translate(79.4642 12.6222)" fill="white"/>
</g>
<g id="Vector_14">
<path d="M 4.93831 -2.16507e-07L 4.93831 1.36214L 1.72266 1.36214L 1.72266 7.60529L -3.50477e-06 7.60529L -3.50477e-06 -2.16507e-07L 4.93831 -2.16507e-07Z" transform="translate(88.8815 12.8493)" fill="white"/>
</g>
<g id="Vector_15">
<path d="M 7.35004 3.97291C 7.35004 4.54047 7.2352 5.10803 7.12035 5.67559C 7.00551 6.12964 6.66098 6.58368 6.43129 6.92422C 6.08676 7.26475 5.74222 7.60529 5.39769 7.7188C 4.82347 8.05934 4.36408 8.05934 3.90471 8.05934C 2.87111 8.05934 2.18204 7.7188 1.72266 6.92422L 1.72266 10.8971L -3.50477e-06 10.8971L -3.50477e-06 2.61077C -3.50477e-06 2.15672 -3.50477e-06 1.81619 -3.50477e-06 1.36214C -3.50477e-06 0.908095 -3.50477e-06 0.567559 -3.50477e-06 0.113512L 1.49298 0.113512L 1.60782 1.36214C 2.18204 0.454048 3.1008 -4.33013e-07 4.24924 -4.33013e-07C 4.70862 -4.33013e-07 5.168 0.113512 5.51253 0.227024C 5.85706 0.454048 6.2016 0.681071 6.54613 1.02161C 6.89066 1.36214 7.00551 1.81619 7.2352 2.27024C 7.2352 2.95131 7.35004 3.40535 7.35004 3.97291ZM 5.62737 4.08642C 5.62737 3.74589 5.62737 3.40535 5.51253 3.06482C 5.39769 2.72428 5.28284 2.49726 5.16799 2.27024C 4.9383 2.04321 4.82346 1.81619 4.47893 1.70268C 4.24924 1.58916 3.90471 1.47565 3.67502 1.47565C 3.44533 1.47565 3.21565 1.47565 2.98596 1.58917C 2.75627 1.70268 2.52658 1.81619 2.41174 2.04321C 2.18205 2.27024 2.0672 2.38375 1.95236 2.72428C 1.83751 2.95131 1.83751 3.29184 1.83751 3.51887L 1.83751 4.7675C 1.83751 4.99452 1.83751 5.33505 1.95236 5.56208C 2.0672 5.7891 2.18204 6.01612 2.29688 6.24315C 2.41173 6.47017 2.64142 6.58368 2.87111 6.69719C 3.10079 6.81071 3.33049 6.81071 3.67502 6.81071C 4.36409 6.81071 4.82346 6.58368 5.16799 6.12964C 5.39768 5.56208 5.62737 4.88101 5.62737 4.08642Z" transform="translate(96.3461 12.5087)" fill="white"/>
</g>
<g id="Vector_16">
<path d="M 7.46488 0.113512L 5.51253 5.44857C 5.05315 6.6972 4.59377 7.7188 4.13439 8.51338C 3.67502 9.30797 3.33049 9.87553 2.87111 10.2161C 2.29689 10.7836 1.60782 11.0106 1.0336 11.1242L 0.57422 9.6485C 1.0336 9.53499 1.49297 9.30797 1.83751 8.96743C 2.29688 8.6269 2.52658 8.17285 2.75627 7.7188L 2.87111 7.37827L 2.75627 7.03773L -1.75239e-06 4.33013e-07L 1.83751 4.33013e-07L 3.33049 4.31345C 3.44533 4.54047 3.44533 4.7675 3.56017 4.99452C 3.67502 5.22154 3.67502 5.56208 3.78987 5.7891C 3.78987 5.67559 3.90471 5.44857 4.01955 5.10803C 4.1344 4.88101 4.1344 4.54047 4.24925 4.19994L 5.51253 4.33013e-07L 7.46488 4.33013e-07L 7.46488 0.113512Z" transform="translate(105.419 12.7357)" fill="white"/>
</g>
<g id="Vector_17">
<path d="M 1.37813 3.51887L 2.18204 3.51887C 2.75627 3.51887 3.21564 3.40535 3.56017 3.17833C 3.90471 2.95131 4.01955 2.72428 4.01955 2.38375C 4.01955 2.04321 3.90471 1.81619 3.56017 1.58917C 3.33049 1.36214 2.87111 1.24863 2.41173 1.24863C 2.0672 1.24863 1.83751 1.24863 1.49298 1.36214C 1.14845 1.47565 0.918755 1.58916 0.574222 1.70268L 0.114843 0.567559C 0.57422 0.340535 1.0336 0.113512 1.49298 0.113512C 1.95236 0 2.41173 -4.33013e-07 2.87111 -4.33013e-07C 3.21564 -4.33013e-07 3.56018 0 3.90471 0.113512C 4.24924 0.227024 4.59377 0.340536 4.82346 0.454047C 5.05315 0.567559 5.28284 0.794582 5.51253 1.13512C 5.74222 1.36214 5.74222 1.70268 5.74222 2.15672C 5.74222 2.38375 5.74222 2.61077 5.62738 2.83779L 5.28284 3.29184L 4.70862 3.63238L 4.1344 3.8594C 4.36408 3.8594 4.59377 3.97291 4.82346 4.08642C 5.05315 4.19994 5.28284 4.31345 5.51253 4.42696C 5.74222 4.54047 5.85706 4.7675 5.9719 4.99452C 6.08675 5.22154 6.2016 5.44857 6.2016 5.67559C 6.2016 6.12964 6.08675 6.47017 5.85706 6.81071C 5.62737 7.15124 5.39769 7.37827 5.05315 7.49178C 4.70862 7.7188 4.36409 7.83231 3.90471 7.83231C 3.44533 7.94583 3.1008 7.94583 2.64142 7.94583C 2.18205 7.94583 1.72266 7.94583 1.26329 7.83231C 0.803909 7.7188 0.344533 7.60529 0 7.37827L 0.459379 6.24315C 0.689068 6.35666 1.0336 6.47017 1.37813 6.58369C 1.72266 6.6972 2.0672 6.6972 2.41173 6.6972C 2.98595 6.6972 3.44533 6.58368 3.78987 6.35666C 4.1344 6.12964 4.24924 5.90261 4.24924 5.56208C 4.24924 5.33505 4.24924 5.10803 4.1344 4.99452L 3.67502 4.65398C 3.44533 4.54047 3.21564 4.54047 2.98595 4.42696C 2.75626 4.42696 2.41173 4.42696 2.18204 4.42696L 1.37813 4.42696L 1.37813 3.51887Z" transform="translate(114.492 12.5087)" fill="white"/>
</g>
<g id="Vector_18">
<path d="M 1.83751 -2.16507e-07L 1.83751 2.72428C 1.83751 3.29184 1.83751 3.8594 1.83751 4.42696C 1.83751 4.88101 1.83751 5.44857 1.72266 6.01613C 1.95235 5.56208 2.0672 5.22154 2.29689 4.88101C 2.52657 4.54047 2.64142 4.08642 2.87111 3.74589L 4.82347 0.113512L 7.0055 0.113512L 7.0055 7.7188L 5.39769 7.7188L 5.39769 4.99452C 5.39769 4.42696 5.39769 3.8594 5.39769 3.29184C 5.39769 2.72428 5.39769 2.15672 5.51253 1.58917L 5.39769 1.58917C 5.168 2.04321 5.05316 2.49726 4.82347 2.83779C 4.59378 3.17833 4.47893 3.51887 4.24925 3.8594C 3.90471 4.54047 3.56018 5.10803 3.21564 5.7891C 2.87111 6.47017 2.52658 7.03773 2.18204 7.7188L -1.75239e-06 7.7188L -1.75239e-06 0.113512L 1.83751 0.113512L 1.83751 -2.16507e-07Z" transform="translate(123.22 12.8493)" fill="white"/>
</g>
<g id="Vector_19">
<path d="M 6.31644 -2.16507e-07L 6.31644 1.36214L 4.01955 1.36214L 4.01955 7.60529L 2.29689 7.60529L 2.29689 1.36214L -1.75239e-06 1.36214L -1.75239e-06 -2.16507e-07L 6.31644 -2.16507e-07Z" transform="translate(132.982 12.8493)" fill="white"/>
</g>
<g id="Vector_20">
<path d="M 7.00551 3.63238L 7.00551 4.08643L 7.00551 4.42696L 1.83751 4.42696C 1.83751 5.10803 2.0672 5.67559 2.52658 6.12964C 2.98596 6.47017 3.56018 6.6972 4.24924 6.6972C 5.05315 6.6972 5.74222 6.58369 6.31644 6.35666L 6.54613 7.49178C 5.85706 7.83231 4.93831 7.94583 3.90471 7.94583C 3.33048 7.94583 2.75626 7.83231 2.29688 7.7188C 1.83751 7.49178 1.37813 7.26476 1.0336 6.92422C 0.689065 6.58369 0.459379 6.12964 0.22969 5.67559C 1.74554e-06 5.22154 -3.50477e-06 4.65398 -3.50477e-06 4.08643C -3.50477e-06 3.51887 0.114846 2.95131 0.22969 2.49726C 0.459379 2.04321 0.689066 1.58917 0.918755 1.24863C 1.26329 0.908095 1.60782 0.567559 2.0672 0.340536C 2.52658 0.113512 2.98596 0 3.56018 0C 4.01956 0 4.47893 0.113512 4.93831 0.227023C 5.28284 0.454047 5.62738 0.68107 5.97191 1.02161C 6.2016 1.36214 6.43128 1.70268 6.66097 2.15672C 6.89066 2.61077 7.00551 3.06482 7.00551 3.63238ZM 5.28285 3.17833C 5.28285 2.61077 5.168 2.04321 4.82347 1.70268C 4.47893 1.36214 4.1344 1.13512 3.56018 1.13512C 3.1008 1.13512 2.64142 1.36214 2.29688 1.70268C 1.95235 2.04321 1.72266 2.61077 1.72266 3.17833L 5.28285 3.17833Z" transform="translate(141.136 12.6222)" fill="white"/>
</g>
<g id="Vector_21">
<path d="M 3.50477e-06 0.113512C 0.344537 0.113512 0.68907 4.33013e-07 1.14845 4.33013e-07C 1.60782 4.33013e-07 2.06721 4.33013e-07 2.64143 4.33013e-07C 2.98596 4.33013e-07 3.33049 4.33013e-07 3.67502 4.33013e-07C 4.01955 4.33013e-07 4.47893 0.113512 4.82346 0.227024C 5.168 0.340536 5.51253 0.567559 5.74222 0.794583C 5.97191 1.02161 6.08676 1.36214 6.08676 1.81619C 6.08676 2.04321 6.08675 2.27024 5.97191 2.38375L 5.62737 2.83779L 5.168 3.17833C 4.93831 3.29184 4.82347 3.29184 4.59378 3.40535C 5.168 3.51887 5.62737 3.74589 5.97191 3.97291C 6.31644 4.31345 6.54613 4.65398 6.54613 5.22154C 6.54613 5.7891 6.43129 6.12963 6.08676 6.47017C 5.74222 6.81071 5.39769 7.03773 4.93831 7.15124C 4.47894 7.26475 4.01955 7.37827 3.56017 7.49178C 3.10079 7.49178 2.64142 7.60529 2.29689 7.60529C 1.83751 7.60529 1.49297 7.60529 1.0336 7.60529C 0.574218 7.60529 0.229692 7.60529 3.50477e-06 7.49178L 3.50477e-06 0.113512ZM 1.60782 3.17833L 2.52658 3.17833C 2.75626 3.17833 3.10079 3.17833 3.33048 3.06482C 3.56017 3.06482 3.78986 2.95131 3.9047 2.83779L 4.36409 2.49726L 4.47893 2.04321C 4.47893 1.70268 4.36409 1.47565 4.01956 1.24863C 3.67502 1.13512 3.21565 1.02161 2.64143 1.02161L 2.18204 1.02161C 2.06719 1.02161 1.83751 1.02161 1.60782 1.02161L 1.60782 3.17833ZM 1.60782 6.58368C 1.83751 6.58368 1.95235 6.58368 2.18204 6.58368L 2.64143 6.58368C 2.87112 6.58368 3.10079 6.58368 3.33048 6.58368C 3.56017 6.58368 3.78987 6.47017 4.01956 6.35666C 4.24924 6.24315 4.36408 6.12964 4.47893 6.01612C 4.59377 5.90261 4.70861 5.67559 4.70861 5.44856C 4.70861 4.99452 4.47892 4.65398 4.13439 4.54047C 3.78986 4.42696 3.21564 4.31345 2.52658 4.31345L 1.60782 4.31345L 1.60782 6.58368Z" transform="translate(155.032 12.7357)" fill="white"/>
</g>
</g>
</g>
</g>
</svg>

