<svg xmlns="http://www.w3.org/2000/svg" viewBox="0 0 200.21 200.21"><defs><style>.cls-1{fill:#fff;}</style></defs><title>Монтажная область 10</title><g id="Var2"><g id="Иконки-2" data-name="Иконки"><path d="M100.06,200.21h.1A100,100,0,0,0,200.21,100.16v0A100.11,100.11,0,0,0,100.11,0h0A100.11,100.11,0,0,0,0,100.11v0A100.05,100.05,0,0,0,100.06,200.21Z"/><path id="facebook" class="cls-1" d="M108.58,157.56V107.62h16.76l2.51-19.46H108.58V75.73c0-5.63,1.57-9.47,9.65-9.47h10.3V48.85a136.65,136.65,0,0,0-15-.77c-14.86,0-25,9.07-25,25.73V88.16H71.68v19.46h16.8v49.94Z"/></g></g></svg>