<svg xmlns="http://www.w3.org/2000/svg" width="217" height="62" viewBox="0 0 217 62">
    <g fill="none">
        <path fill="#000" d="M216.543 55.8a6.224 6.224 0 0 1-1.84 4.386A6.253 6.253 0 0 1 210.299 62H6.245a6.283 6.283 0 0 1-4.395-1.823A6.26 6.26 0 0 1 0 55.8V6.233a6.26 6.26 0 0 1 1.839-4.398A6.284 6.284 0 0 1 6.245 0h204.053c1.657 0 3.245.657 4.416 1.825a6.227 6.227 0 0 1 1.83 4.408V55.8z"/>
        <path fill="#fff" d="M109.302 33.839a6.941 6.941 0 0 0-3.842 1.181 6.906 6.906 0 0 0-1.015 10.64 6.936 6.936 0 0 0 7.55 1.485 6.929 6.929 0 0 0 3.105-2.548 6.91 6.91 0 0 0 1.166-3.84 6.777 6.777 0 0 0-2.002-4.944 6.802 6.802 0 0 0-4.962-1.974zm0 11.095a4.192 4.192 0 0 1-4.048-2.39 4.17 4.17 0 0 1 .733-4.636 4.188 4.188 0 0 1 7.238 2.849 3.974 3.974 0 0 1-2.37 3.837 3.995 3.995 0 0 1-1.553.34zM94.164 33.839a6.941 6.941 0 0 0-3.851 1.166 6.905 6.905 0 0 0-1.05 10.644 6.936 6.936 0 0 0 7.553 1.499 6.93 6.93 0 0 0 3.111-2.548 6.908 6.908 0 0 0 1.168-3.843 6.809 6.809 0 0 0-2-4.921 6.833 6.833 0 0 0-4.931-1.997zm0 11.095a4.19 4.19 0 0 1-2.96-1.224 4.172 4.172 0 0 1 0-5.907 4.19 4.19 0 0 1 5.92 0 4.172 4.172 0 0 1 0 5.907 4.19 4.19 0 0 1-2.96 1.224zm-18.015-9.04v2.937h7.03a6.324 6.324 0 0 1-1.44 3.753 7.326 7.326 0 0 1-5.427 2.154 7.822 7.822 0 0 1-5.526-2.285 7.791 7.791 0 0 1 0-11.029 7.822 7.822 0 0 1 5.526-2.284 7.56 7.56 0 0 1 5.297 2.088l2.06-2.056a10.302 10.302 0 0 0-7.52-3.067 10.775 10.775 0 0 0-7.607 3.144 10.734 10.734 0 0 0-3.15 7.592 10.718 10.718 0 0 0 3.15 7.591 10.758 10.758 0 0 0 7.607 3.145 9.563 9.563 0 0 0 7.166-2.701 9.529 9.529 0 0 0 2.871-7.089c0-.613-.054-1.224-.163-1.827l-9.874-.065zm73.696 2.285a6.527 6.527 0 0 0-2.318-3.096 6.547 6.547 0 0 0-3.666-1.244 6.55 6.55 0 0 0-4.768 2.048 6.524 6.524 0 0 0-1.77 4.87 6.741 6.741 0 0 0 1.957 4.917 6.768 6.768 0 0 0 4.908 2 6.91 6.91 0 0 0 5.755-3.067l-2.354-1.566a3.953 3.953 0 0 1-3.27 1.893 3.536 3.536 0 0 1-3.27-2.089l9.09-3.687-.294-.98zm-9.45 2.317a3.812 3.812 0 0 1 2.172-3.68 3.83 3.83 0 0 1 1.458-.367 2.685 2.685 0 0 1 2.55 1.469l-6.18 2.578zm-7.52 6.689h3.041V26.953h-3.04v20.232zm-4.97-11.845a4.807 4.807 0 0 0-3.661-1.501 6.938 6.938 0 0 0-4.901 2.026 6.911 6.911 0 0 0 0 9.783 6.938 6.938 0 0 0 4.9 2.027 4.718 4.718 0 0 0 3.663-1.6v1.012a3.518 3.518 0 0 1-2.136 3.78c-.483.2-1.004.292-1.526.266a3.896 3.896 0 0 1-3.499-2.447l-2.648 1.077a6.528 6.528 0 0 0 2.442 2.988 6.548 6.548 0 0 0 3.705 1.09 6.32 6.32 0 0 0 4.961-2.054 6.295 6.295 0 0 0 1.578-5.124v-12.4h-2.877v1.077zm-3.498 9.528a3.963 3.963 0 0 1-2.805-1.26 3.949 3.949 0 0 1-1.053-2.884 3.975 3.975 0 0 1 2.318-3.848 3.993 3.993 0 0 1 1.54-.361 3.896 3.896 0 0 1 2.745 1.32 3.883 3.883 0 0 1 .95 2.889 3.842 3.842 0 0 1-.964 2.856 3.859 3.859 0 0 1-2.73 1.288zm39.66-17.915h-7.127V47.25h3.008v-7.7h4.25a6.314 6.314 0 0 0 4.462-1.845 6.29 6.29 0 0 0 0-8.907 6.314 6.314 0 0 0-4.462-1.845h-.13zm.131 9.79h-4.381V29.76h4.316c.927 0 1.817.368 2.473 1.022a3.489 3.489 0 0 1-2.473 5.96h.065zm18.702-2.937a5.716 5.716 0 0 0-5.427 3.263l2.713 1.11a2.873 2.873 0 0 1 2.91-1.632 2.918 2.918 0 0 1 2.19.613 2.913 2.913 0 0 1 1.08 1.998v.228a6.55 6.55 0 0 0-3.27-.783c-2.877 0-5.852 1.599-5.852 4.568a4.697 4.697 0 0 0 3.207 4.241 4.72 4.72 0 0 0 1.86.23 4.29 4.29 0 0 0 3.727-1.958v1.566h2.944V39.42a5.578 5.578 0 0 0-3.852-5.367 5.6 5.6 0 0 0-2.328-.246h.098zm-.458 11.128c-1.013 0-2.387-.49-2.387-1.73s1.733-2.154 3.27-2.154c.97-.024 1.93.213 2.779.686a3.696 3.696 0 0 1-3.596 3.263l-.066-.065zm17.264-10.606l-3.531 8.745-3.63-8.81h-3.27l5.428 12.302-3.106 6.82h3.27l8.337-19.122-3.498.065zm-27.334 13.053h3.04V26.953h-3.04v20.428z"/>
        <path fill="#70C8F2" d="M15.465 10.8a3.259 3.259 0 0 0-.752 2.253v35.894c-.05.83.219 1.646.752 2.284l20.107-20.068v-.392l-19.977-20.1-.13.13z"/>
        <path fill="url(#a)" d="M0 6.675v.493l6.853 6.741 8.006-4.538a2.47 2.47 0 0 0 1.725-2.35 2.463 2.463 0 0 0-1.725-2.352L6.853 0 0 6.675z" transform="translate(35.704 24.147) scale(.99239)"/>
        <path fill="url(#b)" d="M0 20.387a2.672 2.672 0 0 0 3.295 0L27.247 6.905 20.328 0 0 20.387z" transform="translate(15.465 31) scale(.99239)"/>
        <path fill="url(#c)" d="M0 .658l20.394 20.354 6.853-6.905L3.393.559A3.596 3.596 0 0 0 1.548.001 2.046 2.046 0 0 0 0 .658z" transform="translate(15.465 10.148) scale(.99239)"/>
        <path fill="#fff" d="M66.993 21.7h-1.21v-3.263h.949a4.534 4.534 0 0 0 1.242-3.72V9.79h6.54v8.647h1.111V21.7h-1.21V19.58h-7.422V21.7zm2.224-6.983c.1 1.306-.22 2.61-.916 3.72h4.937v-7.342h-4.021v3.622z"/>
        <path stroke="#fff" stroke-miterlimit="10" stroke-width=".1488585" d="M66.993 21.7h-1.21v-3.263h.949a4.534 4.534 0 0 0 1.242-3.72V9.79h6.54v8.647h1.111V21.7h-1.21V19.58h-7.422V21.7zm2.224-6.983c.1 1.306-.22 2.61-.916 3.72h4.937v-7.342h-4.021v3.622z"/>
        <path fill="#fff" d="M85.368 18.404a4.872 4.872 0 0 1-3.596 1.469 4.782 4.782 0 0 1-3.564-1.469 5.118 5.118 0 0 1-1.439-3.622 5.016 5.016 0 0 1 1.439-3.622 4.775 4.775 0 0 1 3.53-1.37 4.88 4.88 0 0 1 3.597 1.468 5.09 5.09 0 0 1 1.44 3.622 5.118 5.118 0 0 1-1.44 3.622l.033-.098zm-6.245-.816a3.797 3.797 0 0 0 5.297 0 3.752 3.752 0 0 0 1.112-2.806 3.746 3.746 0 0 0-1.112-2.806 3.797 3.797 0 0 0-5.297 0 3.85 3.85 0 0 0-1.079 2.806 3.844 3.844 0 0 0 1.08 2.806z"/>
        <path stroke="#fff" stroke-miterlimit="10" stroke-width=".1488585" d="M85.368 18.404a4.872 4.872 0 0 1-3.596 1.469 4.782 4.782 0 0 1-3.564-1.469 5.118 5.118 0 0 1-1.439-3.622 5.016 5.016 0 0 1 1.439-3.622 4.775 4.775 0 0 1 3.53-1.37 4.88 4.88 0 0 1 3.597 1.468 5.09 5.09 0 0 1 1.44 3.622 5.118 5.118 0 0 1-1.407 3.524zm-6.245-.816a3.797 3.797 0 0 0 5.297 0 3.752 3.752 0 0 0 1.112-2.806 3.746 3.746 0 0 0-1.112-2.806 3.797 3.797 0 0 0-5.297 0 3.85 3.85 0 0 0-1.079 2.806 3.844 3.844 0 0 0 1.08 2.806z"/>
        <path fill="#fff" d="M93.117 19.872a4.946 4.946 0 0 1-4.714-3.135 5.017 5.017 0 0 1-.354-1.955 4.951 4.951 0 0 1 1.479-3.564 4.97 4.97 0 0 1 3.59-1.429 4.421 4.421 0 0 1 3.563 1.599l-.85.848a3.269 3.269 0 0 0-2.714-1.24 3.701 3.701 0 0 0-2.749 1.112 3.686 3.686 0 0 0-1.043 2.772 3.811 3.811 0 0 0 1.079 2.806 3.76 3.76 0 0 0 2.713 1.077 3.864 3.864 0 0 0 3.008-1.403l.85.848c-.435.562-1.01 1-1.667 1.273a5.01 5.01 0 0 1-2.19.489"/>
        <path stroke="#fff" stroke-miterlimit="10" stroke-width=".1488585" d="M93.117 19.872a4.946 4.946 0 0 1-4.714-3.135 5.017 5.017 0 0 1-.354-1.955 4.952 4.952 0 0 1 1.479-3.564 4.97 4.97 0 0 1 3.59-1.429 4.421 4.421 0 0 1 3.563 1.599l-.85.848a3.269 3.269 0 0 0-2.714-1.24 3.701 3.701 0 0 0-2.749 1.112 3.686 3.686 0 0 0-1.043 2.772 3.811 3.811 0 0 0 1.079 2.806 3.76 3.76 0 0 0 2.713 1.077 3.864 3.864 0 0 0 3.008-1.403l.85.848c-.435.562-1.01 1-1.667 1.273a5.012 5.012 0 0 1-2.19.391z"/>
        <path fill="#fff" d="M102.044 19.644H100.8v-8.55h-2.714V9.92h6.703v1.175h-2.746v8.55z"/>
        <path stroke="#fff" stroke-miterlimit="10" stroke-width=".1488585" d="M102.044 19.644H100.8v-8.55h-2.714V9.92h6.703v1.175h-2.746v8.55z"/>
        <path fill="#fff" d="M113.389 9.79l-3.695 8.32a2.48 2.48 0 0 1-2.289 1.763 2.128 2.128 0 0 1-.948-.294l.327-1.142c.215.048.439.048.654 0 .225.06.462.06.687 0 .179-.178.323-.389.425-.62l.36-.783-3.303-7.244h1.471l2.42 5.58 2.42-5.58h1.47z"/>
        <path stroke="#fff" stroke-miterlimit="10" stroke-width=".1488585" d="M113.389 9.79l-3.695 8.32a2.48 2.48 0 0 1-2.289 1.763 2.128 2.128 0 0 1-.948-.294l.327-1.142c.215.048.439.048.654 0 .225.06.462.06.687 0 .179-.178.323-.389.425-.62l.36-.783-3.303-7.244h1.471l2.42 5.58 2.42-5.58h1.47z"/>
        <path fill="#fff" d="M114.795 19.644V9.92h7.062v9.724h-1.242v-8.55h-4.545v8.55h-1.275z"/>
        <path stroke="#fff" stroke-miterlimit="10" stroke-width=".1488585" d="M114.795 19.644V9.92h7.062v9.724h-1.242v-8.55h-4.545v8.55h-1.275z"/>
        <path fill="#fff" d="M124.113 19.644V9.92h1.242v4.177h4.872V9.92h1.275v9.724h-1.275V15.24h-4.872v4.405h-1.242z"/>
        <path stroke="#fff" stroke-miterlimit="10" stroke-width=".1488585" d="M124.113 19.644V9.92h1.242v4.177h4.872V9.92h1.275v9.724h-1.275V15.24h-4.872v4.405h-1.242z"/>
        <path fill="#fff" d="M141.703 18.404a4.774 4.774 0 0 1-3.564 1.469 4.881 4.881 0 0 1-3.596-1.469 5.118 5.118 0 0 1-1.439-3.622 5.017 5.017 0 0 1 1.439-3.622 5.106 5.106 0 0 1 7.16 0 5.09 5.09 0 0 1 1.439 3.622 5.118 5.118 0 0 1-1.439 3.622zm-6.212-.815a3.797 3.797 0 0 0 5.297 0 3.85 3.85 0 0 0 1.079-2.807 3.844 3.844 0 0 0-1.08-2.806 3.797 3.797 0 0 0-5.296 0 3.883 3.883 0 0 0-1.112 2.806 3.877 3.877 0 0 0 1.112 2.807z"/>
        <path stroke="#fff" stroke-miterlimit="10" stroke-width=".1488585" d="M141.703 18.404a4.774 4.774 0 0 1-3.564 1.469 4.881 4.881 0 0 1-3.596-1.469 5.118 5.118 0 0 1-1.439-3.622 5.017 5.017 0 0 1 1.439-3.622 5.106 5.106 0 0 1 7.16 0 5.09 5.09 0 0 1 1.439 3.622 5.118 5.118 0 0 1-1.439 3.622zm-6.212-.815a3.797 3.797 0 0 0 5.297 0 3.85 3.85 0 0 0 1.079-2.807 3.844 3.844 0 0 0-1.08-2.806 3.797 3.797 0 0 0-5.296 0 3.883 3.883 0 0 0-1.112 2.806 3.877 3.877 0 0 0 1.112 2.807z"/>
        <path fill="#fff" d="M148.275 19.579v-9.79h3.531a2.75 2.75 0 0 1 1.962.751 2.35 2.35 0 0 1 .85 1.893c.005.43-.12.85-.36 1.207a2.32 2.32 0 0 1-.948.816c.468.16.878.455 1.177.848.302.393.463.876.458 1.37a2.54 2.54 0 0 1-.883 1.991 3.011 3.011 0 0 1-2.06.783l-3.727.131zm1.242-5.547h2.29a1.474 1.474 0 0 0 1.143-.49c.26-.275.41-.634.426-1.011a1.466 1.466 0 0 0-.426-1.045 1.439 1.439 0 0 0-1.078-.456h-2.355v3.002zm0 4.34h2.518a1.507 1.507 0 0 0 1.177-.49c.271-.283.433-.653.458-1.044a1.597 1.597 0 0 0-.458-1.077 1.667 1.667 0 0 0-1.21-.522h-2.485v3.133z"/>
        <path stroke="#fff" stroke-miterlimit="10" stroke-width=".1488585" d="M148.275 19.579v-9.79h3.531a2.75 2.75 0 0 1 1.962.751 2.35 2.35 0 0 1 .85 1.893c.005.43-.12.85-.36 1.207a2.32 2.32 0 0 1-.948.816c.468.16.878.455 1.177.848.302.393.463.876.458 1.37a2.54 2.54 0 0 1-.883 1.991 3.011 3.011 0 0 1-2.06.783l-3.727.131zm1.242-5.547h2.29a1.474 1.474 0 0 0 1.143-.49c.26-.275.41-.634.426-1.011a1.466 1.466 0 0 0-.426-1.045 1.439 1.439 0 0 0-1.078-.456h-2.355v3.002zm0 4.34h2.518a1.507 1.507 0 0 0 1.177-.49c.271-.283.433-.653.458-1.044a1.597 1.597 0 0 0-.458-1.077 1.667 1.667 0 0 0-1.21-.522h-2.485v3.133z"/>
    </g>
    <defs>
        <linearGradient id="a" x2="1" gradientTransform="matrix(16.6709 0 0 16.6382 0 -1.414)" gradientUnits="userSpaceOnUse">
            <stop stop-color="#FFE000"/>
            <stop offset=".42" stop-color="#F9BB00"/>
            <stop offset=".78" stop-color="#F5A300"/>
            <stop offset="1" stop-color="#F49A00"/>
        </linearGradient>
        <linearGradient id="b" x2="1" gradientTransform="matrix(27.3126 0 0 27.259 0 -3.107)" gradientUnits="userSpaceOnUse">
            <stop stop-color="#E6393D"/>
            <stop offset="1" stop-color="#C70E66"/>
        </linearGradient>
        <linearGradient id="c" x2="1" gradientTransform="matrix(27.3126 0 0 27.259 0 -3.107)" gradientUnits="userSpaceOnUse">
            <stop stop-color="#229866"/>
            <stop offset=".15" stop-color="#339F64"/>
            <stop offset=".52" stop-color="#5BAE5E"/>
            <stop offset=".82" stop-color="#73B85B"/>
            <stop offset="1" stop-color="#7CBB5A"/>
        </linearGradient>
    </defs>
</svg>
