<svg xmlns="http://www.w3.org/2000/svg" width="285" height="38" fill="none" viewBox="0 0 285 38">
    <path fill="#F79325" fill-rule="evenodd" d="M1.767 19.008c-.982 0-1.767-.87-1.767-1.955V7.68c0-.714.28-1.428.757-1.924A599.47 599.47 0 0 0 6.143.45c.56-.559 1.374-.559 1.935 0 1.43 1.428 4.068 4.034 5.386 5.338.477.496.757 1.179.757 1.924v9.372c0 1.086-.785 1.955-1.767 1.955-2.72-.031-7.966-.031-10.687-.031zm56.857 0c-.982 0-1.74-.87-1.74-1.955V7.68c0-.714.281-1.428.758-1.924 1.319-1.304 3.955-3.91 5.386-5.338.56-.559 1.374-.559 1.935 0 1.43 1.427 4.067 4.034 5.386 5.338.477.496.757 1.179.757 1.924v9.372c0 1.086-.785 1.955-1.739 1.955H58.624zm-28.442 0c-.982 0-1.74-.87-1.74-1.955V7.68c0-.714.28-1.428.758-1.924 1.318-1.304 3.955-3.91 5.385-5.338.561-.559 1.375-.559 1.936 0 1.43 1.427 4.067 4.034 5.385 5.338.477.496.758 1.179.758 1.924v9.372c0 1.086-.786 1.955-1.74 1.955H30.183zM44.402 38c-.981 0-1.738-.869-1.738-1.955v-9.372c0-.714.28-1.428.757-1.924 1.318-1.304 3.955-3.91 5.386-5.338.56-.558 1.374-.558 1.935 0 1.43 1.428 4.067 4.034 5.386 5.338.476.496.757 1.18.757 1.924v9.372c0 1.086-.786 1.955-1.74 1.955H44.404zm-17.727 0H15.96c-.981 0-1.767-.869-1.767-1.955v-9.372c0-.714.28-1.428.758-1.924 1.318-1.304 3.955-3.91 5.385-5.338.561-.558 1.374-.558 1.935 0 1.431 1.428 4.068 4.034 5.386 5.338.477.496.757 1.18.757 1.924v9.372C28.442 37.13 27.657 38 26.675 38z" clip-rule="evenodd"/>
    <path fill="#F79325" d="M158.705 32.724h-2.412V13.95h4.965v10.303l.028-.03 8.807-10.242h3.366v18.744h-4.964V22.421l-8.836 10.303h-.954zm-39.466 0h-2.412V13.95h4.965v10.303l8.835-10.272h3.366v18.744h-4.964V22.421l-8.836 10.303h-.954zm33.968-13.871h-5.722v13.84h-5.105v-13.84h-5.722v-4.904h16.521v4.904h.028zm-39.494 10.954c-2.496 2.576-5.918 4.19-9.705 4.19-7.096 0-12.875-6.455-12.875-14.4 0-7.944 5.779-14.399 12.875-14.399 3.506 0 6.704 1.365 9.144 3.63l-3.197 4.377c-1.43-1.49-3.45-2.421-5.779-2.421-4.207 0-7.63 3.941-7.63 8.813 0 4.873 3.423 8.814 7.63 8.814 2.497 0 4.629-1.055 6.087-2.762l3.45 4.158z"/>
    <path fill="#231F20" d="M228.69 23.321c.28 3.042 1.823 5.493 5.049 5.493 2.16 0 4.852-1.583 4.852-5.462 0-2.948-1.795-4.996-4.431-4.996-.28 0-.561.031-.842.062-1.15.248-3.646 1.117-4.628 4.903zm-17.335 5.555c-2.58 0-4.937-2.545-4.937-5.462 0-2.948 2.328-5.555 4.937-5.555 2.89 0 5.19 2.576 5.19 5.555-.029 2.917-2.3 5.462-5.19 5.462zm-12.51 3.848h-4.797V23.57L189 30.676h-2.244l-5.048-7.106v9.154h-4.797V13.95h3.366l7.601 10.334 7.602-10.334h3.366v18.775zm49.985 0h-2.413V13.95h4.965v10.303l8.836-10.303h3.338v18.744h-4.965V22.421l-8.836 10.303h-.925zm35.454 0h-4.796V18.76h-4.88v6.89c0 5.803-3.62 8.037-7.827 7.044v-4.22c2.048 0 2.75-.466 2.75-3.414V13.95h14.781v18.775h-.028zM235.9 13.67c4.628.528 7.349 3.972 7.349 9.713-.169 5.866-3.338 10.583-9.34 10.583-6.677 0-9.93-4.47-9.93-13.065 0-6.797 2.328-11.576 7.601-13.934 2.3-1.024 4.796-1.614 7.125-3.01l2.3 4.003c-2.833 3.01-10.631 2.017-12.623 8.782 1.43-1.8 3.114-2.606 4.544-2.917a6.156 6.156 0 0 1 1.627-.217h.056a6.44 6.44 0 0 1 1.29.062zm-24.544-.993c-5.33 0-9.761 4.841-9.761 10.768 0 5.835 4.432 10.676 9.761 10.676 5.414 0 9.846-4.841 9.846-10.676 0-5.927-4.432-10.768-9.846-10.768z"/>
</svg>
