<svg xmlns="http://www.w3.org/2000/svg" viewBox="0 0 200.21 200.16"><defs><style>.cls-1{fill:#fff;}</style></defs><title>Монтажная область 15</title><g id="Var2"><g id="Иконки-2" data-name="Иконки"><path d="M100.06,200.16h.1a100,100,0,0,0,100.05-100h0A100.11,100.11,0,0,0,100.11,0h0A100.11,100.11,0,0,0,0,100.11H0A100.05,100.05,0,0,0,100.06,200.16Z"/><g id="ok"><path class="cls-1" d="M99.71,102.85A25.33,25.33,0,1,0,74.38,77.53,25.35,25.35,0,0,0,99.71,102.85Zm0-35.81A10.49,10.49,0,1,1,89.22,77.53,10.49,10.49,0,0,1,99.71,67Z"/><path class="cls-1" d="M110,123.51a47.23,47.23,0,0,0,14.71-6.09,7.43,7.43,0,0,0-7.91-12.57,32.15,32.15,0,0,1-34.1,0,7.43,7.43,0,0,0-7.91,12.57,47.47,47.47,0,0,0,14.71,6.09L75.3,137.67a7.42,7.42,0,0,0,10.5,10.5l13.91-13.92,13.92,13.92a7.42,7.42,0,0,0,10.49-10.5Z"/></g></g></g></svg>