<svg xmlns="http://www.w3.org/2000/svg" viewBox="0 0 200.21 200.21"><defs><style>.cls-1{fill:#fff;fill-rule:evenodd;}</style></defs><title>Монтажная область 13</title><g id="Var2"><g id="Иконки-2" data-name="Иконки"><path d="M100.06,200.21h.1A100,100,0,0,0,200.21,100.16v0A100.11,100.11,0,0,0,100.11,0h0A100.11,100.11,0,0,0,0,100.11v0A100.05,100.05,0,0,0,100.06,200.21Z"/><path id="vk_alt" class="cls-1" d="M96.51,135.93h6.83a5.8,5.8,0,0,0,3.12-1.36,5,5,0,0,0,.94-3s-.13-9.17,4.12-10.52,9.58,8.86,15.28,12.78c4.32,3,7.6,2.31,7.6,2.31l15.26-.21s8-.49,4.2-6.77c-.32-.51-2.21-4.64-11.35-13.13-9.57-8.88-8.29-7.44,3.24-22.8,7-9.36,9.82-15.07,8.95-17.52s-6-1.71-6-1.71l-17.18.1a3.89,3.89,0,0,0-2.22.4,4.73,4.73,0,0,0-1.52,1.84,100.13,100.13,0,0,1-6.34,13.4c-7.65,13-10.71,13.67-12,12.87-2.91-1.88-2.19-7.56-2.19-11.59,0-12.59,1.91-17.84-3.72-19.2a29.53,29.53,0,0,0-8-.79c-6.13-.06-11.32,0-14.25,1.46-2,1-3.47,3.09-2.55,3.21,1.14.15,3.71.69,5.07,2.55,1.76,2.39,1.7,7.77,1.7,7.77s1,14.82-2.36,16.66c-2.32,1.27-5.49-1.31-12.31-13.1a108.64,108.64,0,0,1-6.14-12.71A5.09,5.09,0,0,0,63.3,75a7.12,7.12,0,0,0-2.64-1.07L44.33,74s-2.45.07-3.35,1.13S40.92,78,40.92,78,53.7,108,68.17,123c13.27,13.82,28.34,12.91,28.34,12.91Z"/></g></g></svg>